<svg xmlns="http://www.w3.org/2000/svg" width="1536" height="1024" viewBox="0 0 1536 1024" version="1.1">
	<path d="M 561 88 L 561 113 564 113 C 566.318 113, 567 112.552, 567 111.030 C 567 109.162, 567.188 109.188, 570.640 111.530 C 581.453 118.869, 593.497 110.159, 593.497 95 C 593.497 79.841, 581.453 71.131, 570.640 78.470 L 567 80.940 567 71.970 L 567 63 564 63 L 561 63 561 88 M 945 88 L 945 113 948 113 C 950.318 113, 951 112.552, 951 111.030 C 951 109.162, 951.188 109.188, 954.640 111.530 C 965.453 118.869, 977.497 110.159, 977.497 95 C 977.497 79.841, 965.453 71.131, 954.640 78.470 L 951 80.940 951 71.970 L 951 63 948 63 L 945 63 945 88 M 310.250 77.119 C 307.562 77.895, 307 78.550, 307 80.912 L 307 83.766 311.250 82.291 C 319.267 79.508, 326.706 81.868, 328.463 87.750 C 329.106 89.902, 328.882 90, 323.317 90.006 C 315.418 90.013, 310.229 91.617, 306.706 95.140 C 304.032 97.814, 303.800 98.567, 304.239 103.135 C 304.977 110.816, 308.141 113.500, 316.457 113.500 C 322.188 113.500, 323.194 113.188, 325.934 110.563 L 329 107.626 329 110.313 C 329 112.650, 329.403 113, 332.096 113 L 335.192 113 334.846 99.071 C 334.543 86.886, 334.241 84.790, 332.429 82.321 C 328.263 76.647, 319.226 74.527, 310.250 77.119 M 1231.250 77.119 C 1228.562 77.895, 1228 78.550, 1228 80.912 L 1228 83.766 1232.250 82.291 C 1240.267 79.508, 1247.706 81.868, 1249.463 87.750 C 1250.106 89.902, 1249.882 90, 1244.317 90.006 C 1236.418 90.013, 1231.229 91.617, 1227.706 95.140 C 1225.032 97.814, 1224.800 98.567, 1225.239 103.135 C 1225.977 110.816, 1229.141 113.500, 1237.457 113.500 C 1243.188 113.500, 1244.194 113.188, 1246.934 110.563 L 1250 107.626 1250 110.313 C 1250 112.650, 1250.403 113, 1253.096 113 L 1256.192 113 1255.846 99.071 C 1255.543 86.886, 1255.241 84.790, 1253.429 82.321 C 1249.263 76.647, 1240.226 74.527, 1231.250 77.119 M 573.308 82.010 C 566.103 84.912, 564.992 101.702, 571.659 106.946 C 575.355 109.854, 579.347 109.555, 583.234 106.082 C 586.417 103.238, 586.500 102.956, 586.500 95 C 586.500 87.044, 586.417 86.762, 583.234 83.918 C 579.908 80.946, 577.228 80.431, 573.308 82.010 M 957.308 82.010 C 950.103 84.912, 948.992 101.702, 955.659 106.946 C 959.355 109.854, 963.347 109.555, 967.234 106.082 C 970.417 103.238, 970.500 102.956, 970.500 95 C 970.500 87.044, 970.417 86.762, 967.234 83.918 C 963.908 80.946, 961.228 80.431, 957.308 82.010 M 315.259 95.705 C 312.566 96.224, 310 99.612, 310 102.650 C 310 105.356, 314.410 109, 317.685 109 C 321.918 109, 325.662 106.303, 327.376 102.018 C 330.023 95.404, 329.770 94.982, 323.250 95.136 C 320.087 95.211, 316.491 95.467, 315.259 95.705 M 1236.259 95.705 C 1233.566 96.224, 1231 99.612, 1231 102.650 C 1231 105.356, 1235.410 109, 1238.685 109 C 1242.918 109, 1246.662 106.303, 1248.376 102.018 C 1251.023 95.404, 1250.770 94.982, 1244.250 95.136 C 1241.088 95.211, 1237.491 95.467, 1236.259 95.705 M 1019.589 124.500 L 1018.962 127 956.981 127 L 895 127 895 312.462 L 895 497.924 892.513 505.712 C 889.431 515.363, 889.430 515.640, 892.500 516.411 L 895 517.038 895 579.019 L 895 641 1023.031 641 C 1124.582 641, 1151.144 641.259, 1151.453 642.250 C 1151.668 642.938, 1154.113 687.535, 1156.886 741.355 C 1160.274 807.103, 1162.309 839.667, 1163.087 840.605 C 1164.606 842.435, 1169.428 842.394, 1170.969 840.537 C 1171.926 839.385, 1171.211 820.370, 1167.597 750.787 C 1165.074 702.229, 1162.725 657.663, 1162.377 651.750 L 1161.743 641 1213.833 641 L 1265.924 641 1273.712 643.487 C 1283.363 646.569, 1283.640 646.570, 1284.411 643.500 L 1285.038 641 1347.019 641 L 1409 641 1409 455.538 L 1409 270.076 1411.487 262.288 C 1414.569 252.637, 1414.570 252.360, 1411.500 251.589 L 1409 250.962 1409 188.981 L 1409 127 1223.538 127 L 1038.076 127 1030.288 124.513 C 1020.637 121.431, 1020.360 121.430, 1019.589 124.500 M 123 320 C 123 516.333, 123.007 517, 125 517 C 126.978 517, 127 517.667, 127 578.996 L 127 640.991 239.250 641.246 L 351.500 641.500 352.190 647.500 C 352.569 650.800, 357.843 694.225, 363.909 744 C 374.173 828.214, 375.088 834.622, 377.080 836.250 C 379.754 838.435, 380.248 838.429, 383.022 836.183 L 385.267 834.366 382.638 812.933 C 374.854 749.461, 362 643.063, 362 642.105 C 362 641.308, 382.235 641, 434.500 641 C 506.234 641, 507 641.021, 507 642.992 C 507 644.955, 507.832 644.987, 564.250 645.242 L 621.500 645.500 632.500 669.687 C 638.550 682.990, 643.792 694.157, 644.149 694.503 C 644.506 694.849, 645.121 690.400, 645.515 684.616 C 645.910 678.833, 646.517 672.732, 646.866 671.060 C 647.472 668.155, 650.549 671.629, 716 749.107 C 753.675 793.705, 785.318 830.632, 786.317 831.168 C 788.812 832.506, 793 829.694, 793 826.681 C 793 824.664, 762.568 788.116, 664.702 672.602 L 654.622 660.704 661.811 661.352 C 665.765 661.708, 672.263 662.273, 676.250 662.606 L 683.500 663.212 664.500 650.356 L 645.500 637.500 645.243 572.365 C 644.989 508.174, 644.957 507.222, 642.985 506.706 C 640.992 506.185, 640.986 505.467, 641.242 316.592 L 641.500 127 579.250 127 C 517.667 127, 517 126.979, 517 125 C 517 123.007, 516.333 123, 320 123 L 123 123 123 320 M 517 309.500 C 517 408.775, 517.188 490, 517.417 490 C 517.646 490, 544.712 409.337, 577.564 310.750 C 610.416 212.162, 637.501 130.938, 637.754 130.250 C 638.119 129.259, 625.671 129, 577.607 129 L 517 129 517 309.500 M 897.462 130.250 C 897.201 130.938, 897.102 212.275, 897.243 311 L 897.500 490.500 957.397 311 C 990.341 212.275, 1017.501 130.938, 1017.754 130.250 C 1018.119 129.259, 1005.765 129, 958.076 129 C 910.885 129, 897.835 129.269, 897.462 130.250 M 1224 189.085 C 1322.725 222.045, 1404.287 249.265, 1405.250 249.574 C 1406.904 250.104, 1407 246.798, 1407 189.567 L 1407 129 1225.750 129.079 L 1044.500 129.158 1224 189.085 M 133 320 L 133 507 234 507 C 314.150 507, 334.993 506.742, 334.968 505.750 C 334.896 502.907, 332.139 483.805, 331.743 483.410 C 331.507 483.174, 327.863 487.462, 323.646 492.939 C 316.137 502.688, 313.597 505.412, 314.447 502.802 C 314.680 502.086, 317.881 482.150, 321.559 458.500 C 325.237 434.850, 328.529 415.193, 328.873 414.818 C 329.465 414.175, 364.975 497.117, 364.418 497.839 C 364.274 498.025, 359.297 494.336, 353.359 489.641 C 347.421 484.946, 342.494 481.193, 342.411 481.302 C 342.327 481.411, 342.988 487.125, 343.880 494 L 345.500 506.500 426.250 506.756 L 507 507.012 507 320.006 L 507 133 320 133 L 133 133 133 320 M 964.979 321.563 C 930.776 424.172, 903.006 508.340, 903.269 508.602 C 903.531 508.864, 958.921 527.472, 1026.358 549.953 L 1148.970 590.826 1148.366 580.163 C 1148.033 574.298, 1147.477 565.273, 1147.130 560.107 L 1146.500 550.714 1137.551 560.824 C 1132.629 566.385, 1128.422 570.755, 1128.202 570.535 C 1127.767 570.100, 1146.609 486.692, 1147.831 483.643 C 1148.350 482.347, 1153.013 494.733, 1163.248 524.599 C 1171.318 548.147, 1177.720 567.613, 1177.475 567.858 C 1177.230 568.103, 1172.501 564.125, 1166.966 559.018 L 1156.902 549.732 1157.552 561.116 C 1157.909 567.377, 1158.493 577.413, 1158.851 583.418 L 1159.500 594.337 1217.494 613.668 C 1249.390 624.301, 1275.790 633, 1276.160 633 C 1277.017 633, 1401.373 260.040, 1400.731 259.397 C 1400.199 258.866, 1028.898 135, 1027.836 135 C 1027.468 135, 999.182 218.953, 964.979 321.563 M 577.750 319.500 C 544.337 419.600, 517 502.738, 517 504.250 L 517 507 577.531 507 C 625.036 507, 638.165 506.731, 638.538 505.750 C 638.799 505.063, 638.898 421.925, 638.757 321 L 638.500 137.500 577.750 319.500 M 1429 180 L 1429 205 1432 205 C 1434.318 205, 1435 204.552, 1435 203.030 C 1435 201.162, 1435.188 201.188, 1438.640 203.530 C 1449.453 210.869, 1461.497 202.159, 1461.497 187 C 1461.497 171.841, 1449.453 163.131, 1438.640 170.470 L 1435 172.940 1435 163.970 L 1435 155 1432 155 L 1429 155 1429 180 M 1441.308 174.010 C 1434.103 176.912, 1432.992 193.702, 1439.659 198.946 C 1443.355 201.854, 1447.347 201.555, 1451.234 198.082 C 1454.417 195.238, 1454.500 194.956, 1454.500 187 C 1454.500 179.044, 1454.417 178.762, 1451.234 175.918 C 1447.908 172.946, 1445.228 172.431, 1441.308 174.010 M 1212.830 222.027 C 1206.899 225.160, 1204.572 229.343, 1204.154 237.627 C 1203.525 250.071, 1208.970 257.009, 1219.992 257.806 C 1227.978 258.383, 1233 256.643, 1233 253.297 C 1233 250.921, 1232.782 250.805, 1229.750 251.573 C 1227.963 252.026, 1224.322 252.415, 1221.659 252.438 C 1217.451 252.475, 1216.446 252.063, 1213.963 249.284 C 1210.735 245.671, 1209.463 240.676, 1210.442 235.456 C 1210.808 233.506, 1212.392 230.473, 1213.963 228.716 C 1216.446 225.937, 1217.451 225.525, 1221.659 225.562 C 1224.322 225.585, 1227.963 225.974, 1229.750 226.427 C 1232.776 227.193, 1233 227.076, 1233 224.723 C 1233 222.787, 1232.263 221.939, 1229.851 221.098 C 1224.982 219.401, 1216.975 219.838, 1212.830 222.027 M 351 256.330 C 347.114 257.340, 346.455 257.894, 346.170 260.388 C 345.889 262.855, 346.107 263.162, 347.670 262.500 C 355.609 259.137, 361.355 259.491, 363.161 263.454 C 364.979 267.445, 363.312 270.715, 354.463 280.512 C 349.621 285.874, 346 290.764, 346 291.941 C 346 293.905, 346.553 294, 358 294 C 369.333 294, 370 293.889, 370 292 C 370 290.157, 369.333 290, 361.500 290 C 356.825 290, 353 289.641, 353 289.203 C 353 288.765, 354.853 286.627, 357.119 284.453 C 365.580 276.332, 369 271.177, 369 266.545 C 369 261.177, 366.222 257.433, 361.205 256.040 C 356.830 254.825, 356.788 254.826, 351 256.330 M 1346.603 457 C 1313.659 555.725, 1286.499 637.063, 1286.246 637.750 C 1285.881 638.741, 1298.235 639, 1345.924 639 C 1393.115 639, 1406.165 638.731, 1406.538 637.750 C 1406.799 637.063, 1406.898 555.725, 1406.757 457 L 1406.500 277.500 1346.603 457 M 82.250 297.119 C 79.562 297.895, 79 298.550, 79 300.912 L 79 303.766 83.250 302.291 C 91.267 299.508, 98.706 301.868, 100.463 307.750 C 101.106 309.902, 100.882 310, 95.317 310.006 C 87.418 310.013, 82.229 311.617, 78.706 315.140 C 76.032 317.814, 75.800 318.567, 76.239 323.135 C 76.977 330.816, 80.141 333.500, 88.457 333.500 C 94.188 333.500, 95.194 333.188, 97.934 330.563 L 101 327.626 101 330.313 C 101 332.650, 101.403 333, 104.096 333 L 107.192 333 106.846 319.071 C 106.543 306.886, 106.241 304.790, 104.429 302.321 C 100.263 296.647, 91.226 294.527, 82.250 297.119 M 311 296.882 C 307.970 297.417, 307.376 298.002, 306.576 301.242 C 306.067 303.300, 305.912 305.246, 306.232 305.565 C 306.551 305.884, 308.542 305.665, 310.656 305.078 C 315.551 303.719, 322.568 303.698, 325.066 305.035 C 326.130 305.605, 327 306.955, 327 308.035 C 327 309.791, 326.294 310, 320.366 310 C 305.368 310, 297.506 316.221, 299.444 326.554 C 300.790 333.729, 310.588 336.212, 318.869 331.478 C 323.005 329.114, 323.210 329.088, 322.713 330.990 C 322.231 332.833, 322.670 333, 327.987 333 C 331.714 333, 333.951 332.553, 334.247 331.750 C 334.500 331.063, 335.770 324.950, 337.067 318.167 L 339.426 305.833 337.462 302.167 C 336.132 299.685, 334.367 298.114, 331.999 297.306 C 328.332 296.056, 316.975 295.826, 311 296.882 M 850.250 297.119 C 847.562 297.895, 847 298.550, 847 300.912 L 847 303.766 851.250 302.291 C 859.267 299.508, 866.706 301.868, 868.463 307.750 C 869.106 309.902, 868.882 310, 863.317 310.006 C 855.418 310.013, 850.229 311.617, 846.706 315.140 C 844.032 317.814, 843.800 318.567, 844.239 323.135 C 844.977 330.816, 848.141 333.500, 856.457 333.500 C 862.188 333.500, 863.194 333.188, 865.934 330.563 L 869 327.626 869 330.313 C 869 332.650, 869.403 333, 872.096 333 L 875.192 333 874.846 319.071 C 874.543 306.886, 874.241 304.790, 872.429 302.321 C 868.263 296.647, 859.226 294.527, 850.250 297.119 M 87.259 315.705 C 84.566 316.224, 82 319.612, 82 322.650 C 82 325.356, 86.410 329, 89.685 329 C 93.918 329, 97.662 326.303, 99.376 322.018 C 102.023 315.404, 101.770 314.982, 95.250 315.136 C 92.088 315.211, 88.491 315.467, 87.259 315.705 M 855.259 315.705 C 852.566 316.224, 850 319.612, 850 322.650 C 850 325.356, 854.410 329, 857.685 329 C 861.918 329, 865.662 326.303, 867.376 322.018 C 870.023 315.404, 869.770 314.982, 863.250 315.136 C 860.087 315.211, 856.491 315.467, 855.259 315.705 M 314.338 317.999 C 311.659 319.079, 310.424 322.600, 312.040 324.548 C 313.496 326.303, 318.891 326.404, 321.087 324.718 C 322.851 323.364, 325 319.710, 325 318.066 C 325 316.797, 317.435 316.750, 314.338 317.999 M 982.830 329.027 C 976.899 332.160, 974.572 336.343, 974.154 344.627 C 973.525 357.071, 978.970 364.009, 989.992 364.806 C 997.978 365.383, 1003 363.643, 1003 360.297 C 1003 357.921, 1002.782 357.805, 999.750 358.573 C 997.962 359.026, 994.322 359.415, 991.659 359.438 C 987.451 359.475, 986.446 359.063, 983.963 356.284 C 980.735 352.671, 979.463 347.676, 980.442 342.456 C 980.808 340.506, 982.392 337.473, 983.963 335.716 C 986.446 332.937, 987.451 332.525, 991.659 332.562 C 994.322 332.585, 997.962 332.974, 999.750 333.427 C 1002.776 334.193, 1003 334.076, 1003 331.723 C 1003 329.787, 1002.263 328.939, 999.851 328.098 C 994.982 326.401, 986.975 326.838, 982.830 329.027 M 594.450 333.407 C 581.230 339.165, 581.380 363.083, 594.671 368.636 C 598.605 370.280, 606.526 370.410, 610.851 368.902 C 613.442 367.999, 614 367.271, 614 364.795 C 614 362.323, 613.687 361.914, 612.250 362.501 C 601.661 366.830, 594.249 364.352, 591.920 355.703 C 589.622 347.168, 593.749 338.706, 600.767 337.561 C 604.166 337.006, 607.488 337.568, 612.250 339.503 C 613.687 340.087, 614 339.675, 614 337.205 C 614 334.729, 613.442 334.001, 610.851 333.098 C 606.606 331.618, 598.193 331.777, 594.450 333.407 M 1183 333.330 C 1179.114 334.340, 1178.455 334.894, 1178.170 337.388 C 1177.889 339.855, 1178.107 340.162, 1179.670 339.500 C 1187.609 336.137, 1193.355 336.491, 1195.161 340.454 C 1196.979 344.445, 1195.312 347.715, 1186.463 357.512 C 1181.621 362.874, 1178 367.764, 1178 368.941 C 1178 370.905, 1178.553 371, 1190 371 C 1201.333 371, 1202 370.889, 1202 369 C 1202 367.157, 1201.333 367, 1193.500 367 C 1188.825 367, 1185 366.641, 1185 366.203 C 1185 365.765, 1186.853 363.627, 1189.119 361.453 C 1197.580 353.332, 1201 348.177, 1201 343.545 C 1201 338.177, 1198.222 334.433, 1193.205 333.040 C 1188.830 331.825, 1188.788 331.826, 1183 333.330 M 1151.137 374.309 C 1142.174 377.712, 1135.744 386.698, 1135.607 396.013 C 1135.451 406.585, 1142.586 411.728, 1156.068 410.763 C 1159.960 410.485, 1163.596 409.804, 1164.149 409.251 C 1165.080 408.320, 1167.181 400.847, 1166.658 400.325 C 1166.531 400.198, 1164.120 400.770, 1161.300 401.597 C 1156.761 402.927, 1155.767 402.929, 1152.623 401.616 C 1148.575 399.924, 1147.400 397.013, 1148.467 391.322 C 1149.864 383.880, 1157.584 379.904, 1165.461 382.571 C 1167.639 383.308, 1169.591 383.742, 1169.798 383.535 C 1170.853 382.480, 1171.795 375.395, 1170.988 374.588 C 1169.496 373.096, 1154.872 372.891, 1151.137 374.309 M 1314.830 391.027 C 1308.899 394.160, 1306.572 398.343, 1306.154 406.627 C 1305.525 419.071, 1310.970 426.009, 1321.992 426.806 C 1329.978 427.383, 1335 425.643, 1335 422.297 C 1335 419.921, 1334.782 419.805, 1331.750 420.573 C 1329.963 421.026, 1326.322 421.415, 1323.659 421.438 C 1319.451 421.475, 1318.446 421.063, 1315.963 418.284 C 1312.735 414.671, 1311.463 409.676, 1312.442 404.456 C 1312.808 402.506, 1314.392 399.473, 1315.963 397.716 C 1318.446 394.937, 1319.451 394.525, 1323.659 394.562 C 1326.322 394.585, 1329.963 394.974, 1331.750 395.427 C 1334.776 396.193, 1335 396.076, 1335 393.723 C 1335 391.787, 1334.263 390.939, 1331.851 390.098 C 1326.982 388.401, 1318.975 388.838, 1314.830 391.027 M 1433.250 451.119 C 1430.562 451.895, 1430 452.550, 1430 454.912 L 1430 457.766 1434.250 456.291 C 1442.267 453.508, 1449.706 455.868, 1451.463 461.750 C 1452.106 463.902, 1451.882 464, 1446.317 464.006 C 1438.418 464.013, 1433.229 465.617, 1429.706 469.140 C 1427.032 471.814, 1426.800 472.567, 1427.239 477.135 C 1427.977 484.816, 1431.141 487.500, 1439.457 487.500 C 1445.188 487.500, 1446.194 487.188, 1448.934 484.563 L 1452 481.626 1452 484.313 C 1452 486.650, 1452.403 487, 1455.096 487 L 1458.192 487 1457.846 473.071 C 1457.543 460.886, 1457.241 458.790, 1455.429 456.321 C 1451.263 450.647, 1442.226 448.527, 1433.250 451.119 M 1438.259 469.705 C 1435.566 470.224, 1433 473.612, 1433 476.650 C 1433 479.356, 1437.410 483, 1440.685 483 C 1444.918 483, 1448.662 480.303, 1450.376 476.018 C 1453.023 469.404, 1452.770 468.982, 1446.250 469.136 C 1443.088 469.211, 1439.491 469.467, 1438.259 469.705 M 129.242 577.750 L 129.500 638.500 240.250 638.754 C 328.546 638.957, 350.990 638.754, 350.949 637.754 C 350.921 637.064, 349.458 625.062, 347.699 611.082 L 344.500 585.663 241.504 551.332 C 163.860 525.451, 137.335 517, 133.746 517 L 128.985 517 129.242 577.750 M 246.437 549.556 C 299.752 567.378, 343.547 581.787, 343.759 581.575 C 343.971 581.363, 342.404 566.859, 340.277 549.345 L 336.410 517.500 242.955 517.326 L 149.500 517.152 246.437 549.556 M 347 518.537 C 347 519.971, 353.252 572.421, 354.527 581.684 L 355.103 585.868 430.301 610.934 C 471.661 624.720, 505.838 636, 506.250 636 C 506.663 636, 507 609.225, 507 576.500 L 507 517 427 517 C 355.694 517, 347 517.167, 347 518.537 M 517 576 L 517 635 566.918 635 L 616.837 635 611.863 623.889 C 609.127 617.778, 607.059 612.608, 607.266 612.400 C 607.474 612.193, 612.244 615.143, 617.866 618.957 C 623.488 622.771, 629.643 626.852, 631.544 628.027 L 635 630.163 635 573.582 L 635 517 576 517 L 517 517 517 576 M 897.242 578.140 L 897.500 638.500 1024.349 638.754 L 1151.198 639.008 1150.478 621.754 C 1150.082 612.264, 1149.402 603.825, 1148.967 603 C 1148.489 602.093, 1099.052 585.145, 1023.838 560.103 C 955.452 537.335, 898.934 518.498, 898.242 518.243 C 897.239 517.874, 897.036 529.986, 897.242 578.140 M 1094.830 524.027 C 1088.899 527.160, 1086.572 531.343, 1086.154 539.627 C 1085.525 552.071, 1090.970 559.009, 1101.992 559.806 C 1109.978 560.383, 1115 558.643, 1115 555.297 C 1115 552.921, 1114.782 552.805, 1111.750 553.573 C 1109.963 554.026, 1106.322 554.415, 1103.659 554.438 C 1099.451 554.475, 1098.446 554.063, 1095.963 551.284 C 1092.735 547.671, 1091.463 542.676, 1092.442 537.456 C 1092.808 535.506, 1094.392 532.473, 1095.963 530.716 C 1098.446 527.937, 1099.451 527.525, 1103.659 527.562 C 1106.322 527.585, 1109.963 527.974, 1111.750 528.427 C 1114.776 529.193, 1115 529.076, 1115 526.723 C 1115 524.787, 1114.263 523.939, 1111.851 523.098 C 1106.982 521.401, 1098.975 521.838, 1094.830 524.027 M 77 564 L 77 589 80 589 C 82.318 589, 83 588.552, 83 587.030 C 83 585.162, 83.188 585.188, 86.640 587.530 C 97.453 594.869, 109.497 586.159, 109.497 571 C 109.497 555.841, 97.453 547.131, 86.640 554.470 L 83 556.940 83 547.970 L 83 539 80 539 L 77 539 77 564 M 845 564 L 845 589 848 589 C 850.318 589, 851 588.552, 851 587.030 C 851 585.162, 851.188 585.188, 854.640 587.530 C 865.453 594.869, 877.497 586.159, 877.497 571 C 877.497 555.841, 865.453 547.131, 854.640 554.470 L 851 556.940 851 547.970 L 851 539 848 539 L 845 539 845 564 M 597 542.330 C 593.114 543.340, 592.455 543.894, 592.170 546.388 C 591.889 548.855, 592.107 549.162, 593.670 548.500 C 601.609 545.137, 607.355 545.491, 609.161 549.454 C 610.979 553.445, 609.312 556.715, 600.463 566.512 C 595.621 571.874, 592 576.764, 592 577.941 C 592 579.905, 592.553 580, 604 580 C 615.333 580, 616 579.889, 616 578 C 616 576.157, 615.333 576, 607.500 576 C 602.825 576, 599 575.641, 599 575.203 C 599 574.765, 600.853 572.627, 603.119 570.453 C 611.580 562.332, 615 557.177, 615 552.545 C 615 547.177, 612.222 543.433, 607.205 542.040 C 602.830 540.825, 602.788 540.826, 597 542.330 M 89.308 558.010 C 82.103 560.912, 80.992 577.702, 87.659 582.946 C 91.355 585.854, 95.347 585.555, 99.234 582.082 C 102.417 579.238, 102.500 578.956, 102.500 571 C 102.500 563.044, 102.417 562.762, 99.234 559.918 C 95.908 556.946, 93.228 556.431, 89.308 558.010 M 857.308 558.010 C 850.103 560.912, 848.992 577.702, 855.659 582.946 C 859.355 585.854, 863.347 585.555, 867.234 582.082 C 870.417 579.238, 870.500 578.956, 870.500 571 C 870.500 563.044, 870.417 562.762, 867.234 559.918 C 863.908 556.946, 861.228 556.431, 857.308 558.010 M 553.506 566.250 C 553.269 566.938, 551.230 577.175, 548.975 589 C 546.720 600.825, 544.629 611.513, 544.329 612.750 C 543.809 614.894, 544.066 615, 549.775 615 C 555.054 615, 555.833 614.746, 556.326 612.863 C 556.877 610.754, 556.929 610.763, 560.146 613.470 C 563.004 615.874, 564.054 616.160, 568.632 615.781 C 578.401 614.970, 585.802 606.333, 586.740 594.646 C 587.338 587.207, 585.608 582.983, 580.701 579.900 C 576.571 577.305, 569.531 577.774, 565.084 580.940 L 561.912 583.199 562.460 580.849 C 562.761 579.557, 563.626 575.462, 564.382 571.750 L 565.756 565 559.847 565 C 556.016 565, 553.786 565.440, 553.506 566.250 M 563.241 589.250 C 559.298 593.459, 557.794 600.879, 560.035 605.066 C 560.785 606.467, 562.138 607, 564.946 607 C 568.027 607, 569.341 606.383, 571.351 603.995 C 574.333 600.451, 575.767 592.978, 574.147 589.422 C 572.628 586.089, 566.296 585.989, 563.241 589.250 M 276.500 589.412 C 270.194 592.214, 266.880 598.080, 266.792 606.591 C 266.697 615.806, 270.446 622.341, 277.315 624.936 C 280.965 626.315, 288.847 626.298, 292.851 624.902 C 295.442 623.999, 296 623.271, 296 620.795 C 296 618.308, 295.696 617.917, 294.250 618.541 C 282.054 623.805, 273.500 619.047, 273.500 607 C 273.500 594.953, 282.054 590.195, 294.250 595.459 C 295.696 596.083, 296 595.692, 296 593.205 C 296 590.729, 295.442 590.001, 292.851 589.098 C 288.599 587.616, 280.177 587.777, 276.500 589.412 M 355.988 591.250 C 355.953 594.827, 361.375 637.611, 361.945 638.257 C 362.313 638.673, 394.088 638.898, 432.557 638.757 L 502.500 638.500 430 614.250 C 390.125 600.913, 357.162 590, 356.750 590 C 356.337 590, 355.995 590.563, 355.988 591.250 M 1160.490 616.250 C 1160.810 621.888, 1161.316 629.313, 1161.615 632.750 L 1162.159 639 1210.246 639 C 1236.694 639, 1258.092 638.759, 1257.797 638.464 C 1257.182 637.849, 1161.941 606, 1160.716 606 C 1160.272 606, 1160.170 610.612, 1160.490 616.250 M 1329 672 L 1329 697 1332 697 C 1334.318 697, 1335 696.552, 1335 695.030 C 1335 693.162, 1335.188 693.188, 1338.640 695.530 C 1349.453 702.869, 1361.497 694.159, 1361.497 679 C 1361.497 663.841, 1349.453 655.131, 1338.640 662.470 L 1335 664.940 1335 655.970 L 1335 647 1332 647 L 1329 647 1329 672 M 1078.250 661.119 C 1075.562 661.895, 1075 662.550, 1075 664.912 L 1075 667.766 1079.250 666.291 C 1087.267 663.508, 1094.706 665.868, 1096.463 671.750 C 1097.106 673.902, 1096.882 674, 1091.317 674.006 C 1083.418 674.013, 1078.229 675.617, 1074.706 679.140 C 1072.032 681.814, 1071.800 682.567, 1072.239 687.135 C 1072.977 694.816, 1076.141 697.500, 1084.457 697.500 C 1090.188 697.500, 1091.194 697.188, 1093.934 694.563 L 1097 691.626 1097 694.313 C 1097 696.650, 1097.403 697, 1100.096 697 L 1103.192 697 1102.846 683.071 C 1102.543 670.886, 1102.241 668.790, 1100.429 666.321 C 1096.263 660.647, 1087.226 658.527, 1078.250 661.119 M 1341.308 666.010 C 1334.103 668.912, 1332.992 685.702, 1339.659 690.946 C 1343.355 693.854, 1347.347 693.555, 1351.234 690.082 C 1354.417 687.238, 1354.500 686.956, 1354.500 679 C 1354.500 671.044, 1354.417 670.762, 1351.234 667.918 C 1347.908 664.946, 1345.228 664.431, 1341.308 666.010 M 1083.259 679.705 C 1080.566 680.224, 1078 683.612, 1078 686.650 C 1078 689.356, 1082.410 693, 1085.685 693 C 1089.918 693, 1093.662 690.303, 1095.376 686.018 C 1098.023 679.404, 1097.770 678.982, 1091.250 679.136 C 1088.088 679.211, 1084.491 679.467, 1083.259 679.705 M 422.500 808.794 C 418.012 810.325, 417.468 810.833, 417.187 813.750 C 416.818 817.573, 416.933 817.595, 423.761 814.999 C 430.362 812.490, 434.622 812.472, 438.661 814.935 C 446.009 819.415, 444.536 825.058, 432.586 838.219 C 427.451 843.874, 421.844 849.822, 420.125 851.437 C 418.062 853.376, 417 855.330, 417 857.187 L 417 860 434.066 860 L 451.133 860 450.816 857.250 L 450.500 854.500 438.224 854 L 425.948 853.500 435.089 844.500 C 446.719 833.049, 450.001 828.107, 449.996 822.054 C 449.986 809.945, 437.199 803.778, 422.500 808.794 M 832.500 808.794 C 828.012 810.325, 827.468 810.833, 827.187 813.750 C 826.818 817.573, 826.933 817.595, 833.761 814.999 C 840.362 812.490, 844.622 812.472, 848.661 814.935 C 856.009 819.415, 854.536 825.058, 842.586 838.219 C 837.451 843.874, 831.844 849.822, 830.125 851.437 C 828.062 853.376, 827 855.330, 827 857.187 L 827 860 844.066 860 L 861.133 860 860.816 857.250 L 860.500 854.500 848.224 854 L 835.948 853.500 845.089 844.500 C 856.719 833.049, 860.001 828.107, 859.996 822.054 C 859.986 809.945, 847.199 803.778, 832.500 808.794 M 1190.500 808.794 C 1186.012 810.325, 1185.468 810.833, 1185.187 813.750 C 1184.818 817.573, 1184.933 817.595, 1191.761 814.999 C 1198.362 812.490, 1202.622 812.472, 1206.661 814.935 C 1214.009 819.415, 1212.536 825.058, 1200.586 838.219 C 1195.451 843.874, 1189.844 849.822, 1188.125 851.437 C 1186.062 853.376, 1185 855.330, 1185 857.187 L 1185 860 1202.066 860 L 1219.133 860 1218.816 857.250 L 1218.500 854.500 1206.224 854 L 1193.948 853.500 1203.089 844.500 C 1214.719 833.049, 1218.001 828.107, 1217.996 822.054 C 1217.986 809.945, 1205.199 803.778, 1190.500 808.794 M 749.392 848.750 C 749.007 850.813, 745.662 868.025, 741.957 887 C 738.253 905.975, 735.423 921.837, 735.670 922.250 C 735.916 922.663, 739.868 923, 744.452 923 C 753.201 923, 754 922.575, 754 917.918 C 754 915.243, 755.164 915.518, 758.478 918.977 C 762.192 922.854, 767.038 924.379, 773.516 923.710 C 788.261 922.189, 799.880 907.998, 800.809 890.375 C 801.294 881.189, 800.128 876.494, 796.205 871.832 C 789.073 863.356, 776.442 862.849, 766.240 870.631 L 762.872 873.199 763.552 869.350 C 763.926 867.232, 765.080 861.288, 766.116 856.140 C 767.152 850.992, 768 846.379, 768 845.890 C 768 845.400, 763.970 845, 759.045 845 L 750.091 845 749.392 848.750 M 572 872 L 572 886 558 886 L 544 886 544 890.500 L 544 895 558 895 L 572 895 572 908.500 L 572 922 576 922 L 580 922 580 908.500 L 580 895 594 895 L 608 895 608 890.500 L 608 886 594 886 L 580 886 580 872 L 580 858 576 858 L 572 858 572 872 M 374.256 864.954 C 364.213 866.536, 364.394 866.411, 363.141 872.650 C 361.423 881.206, 361.329 881.063, 367.210 878.828 C 378.256 874.631, 391.901 875.495, 394.198 880.536 C 396.277 885.099, 395.057 885.682, 382.325 886.206 C 373.038 886.589, 369.402 887.171, 365.490 888.901 C 356.161 893.026, 352 898.862, 352 907.820 C 352 923.171, 371.701 928.428, 385.516 916.763 L 388.532 914.216 388.157 918.148 L 387.782 922.081 396.598 921.791 L 405.414 921.500 408.703 905.500 C 414.329 878.133, 413.520 872.014, 403.627 867.093 C 399.708 865.143, 396.954 864.632, 389.144 864.406 C 383.840 864.253, 377.140 864.499, 374.256 864.954 M 1155.045 865.027 C 1144.002 867.353, 1133.905 875.365, 1128.970 885.720 C 1125.642 892.703, 1125.093 904.161, 1127.794 910.268 C 1131.432 918.490, 1140.494 923, 1153.382 923 C 1159.927 923, 1169.688 921.107, 1170.842 919.614 C 1171.838 918.324, 1174.199 906.866, 1173.593 906.260 C 1173.369 906.036, 1171.682 906.660, 1169.843 907.647 C 1167.473 908.918, 1164.251 909.450, 1158.775 909.470 C 1151.746 909.497, 1150.813 909.263, 1148.416 906.868 C 1143.405 901.862, 1144.241 890.212, 1150.089 883.552 C 1156.022 876.795, 1165.894 875.354, 1174.874 879.936 L 1178.742 881.909 1179.871 876.288 C 1181.531 868.022, 1181.388 867.332, 1177.750 866.055 C 1173.256 864.477, 1160.418 863.896, 1155.045 865.027 M 928 880 L 928 884 960 884 L 992 884 992 880 L 992 876 960 876 L 928 876 928 880 M 766.898 880.289 C 761.934 883.632, 758.997 889.654, 758.305 897.901 C 757.736 904.685, 757.803 904.957, 760.783 907.937 C 764.197 911.351, 767.211 911.774, 772.466 909.579 C 779.791 906.518, 785.028 891.788, 781.658 883.724 C 779.167 877.762, 772.836 876.289, 766.898 880.289 M 928 900.500 L 928 905 960 905 L 992 905 992 900.500 L 992 896 960 896 L 928 896 928 900.500 M 375.357 897.992 C 372.772 899.035, 370 902.777, 370 905.223 C 370 908.273, 373.661 911, 377.750 910.996 C 384.152 910.990, 389.937 906.272, 391.541 899.750 L 392.217 897 384.858 897.063 C 380.811 897.098, 376.536 897.516, 375.357 897.992" stroke="none" fill="black" fill-rule="evenodd"/>
</svg>